<svg width="40" height="40" viewBox="0 0 40 40" fill="none" xmlns="http://www.w3.org/2000/svg">
<path d="M36.533 19.3334C33.1663 11.5167 26.833 6.66675 19.9996 6.66675C13.1663 6.66675 6.83296 11.5167 3.46629 19.3334C3.37452 19.5437 3.32715 19.7707 3.32715 20.0001C3.32715 20.2295 3.37452 20.4565 3.46629 20.6667C6.83296 28.4834 13.1663 33.3334 19.9996 33.3334C26.833 33.3334 33.1663 28.4834 36.533 20.6667C36.6247 20.4565 36.6721 20.2295 36.6721 20.0001C36.6721 19.7707 36.6247 19.5437 36.533 19.3334V19.3334ZM19.9996 30.0001C14.7163 30.0001 9.71629 26.1834 6.83296 20.0001C9.71629 13.8167 14.7163 10.0001 19.9996 10.0001C25.283 10.0001 30.283 13.8167 33.1663 20.0001C30.283 26.1834 25.283 30.0001 19.9996 30.0001ZM19.9996 13.3334C18.6811 13.3334 17.3921 13.7244 16.2958 14.457C15.1995 15.1895 14.345 16.2307 13.8404 17.4489C13.3358 18.667 13.2038 20.0075 13.4611 21.3007C13.7183 22.5939 14.3532 23.7818 15.2856 24.7141C16.2179 25.6465 17.4058 26.2814 18.699 26.5387C19.9922 26.7959 21.3327 26.6639 22.5508 26.1593C23.769 25.6547 24.8102 24.8002 25.5428 23.7039C26.2753 22.6076 26.6663 21.3186 26.6663 20.0001C26.6663 18.232 25.9639 16.5363 24.7137 15.286C23.4634 14.0358 21.7677 13.3334 19.9996 13.3334V13.3334ZM19.9996 23.3334C19.3404 23.3334 18.6959 23.1379 18.1477 22.7716C17.5996 22.4054 17.1723 21.8848 16.92 21.2757C16.6677 20.6666 16.6017 19.9964 16.7303 19.3498C16.859 18.7032 17.1764 18.1092 17.6426 17.6431C18.1088 17.1769 18.7027 16.8594 19.3493 16.7308C19.9959 16.6022 20.6661 16.6682 21.2752 16.9205C21.8843 17.1728 22.4049 17.6 22.7712 18.1482C23.1375 18.6963 23.333 19.3408 23.333 20.0001C23.333 20.8841 22.9818 21.732 22.3566 22.3571C21.7315 22.9822 20.8837 23.3334 19.9996 23.3334Z" fill="white"/>
</svg>
