<svg width="30" height="30" viewBox="0 0 30 30" fill="none" xmlns="http://www.w3.org/2000/svg">
<path d="M28.3333 9.0251L18.3334 1.14453C17.4167 0.407478 16.2299 0 15.0001 0C13.7702 0 12.5834 0.407478 11.6667 1.14453L1.66681 9.0251C1.13743 9.4507 0.714986 9.9728 0.427608 10.5566C0.14023 11.1405 -0.00548756 11.7726 0.000157989 12.411V25.5054C0.000157989 26.6974 0.526939 27.8407 1.46461 28.6836C2.40229 29.5265 3.67405 30 5.00012 30H25C26.3261 30 27.5978 29.5265 28.5355 28.6836C29.4732 27.8407 29.9999 26.6974 29.9999 25.5054V12.3961C30.0032 11.7602 29.8564 11.1309 29.5691 10.5498C29.2818 9.9687 28.8606 9.44903 28.3333 9.0251V9.0251ZM18.3334 27.0036H11.6667V19.5125C11.6667 19.1152 11.8423 18.7341 12.1549 18.4532C12.4675 18.1722 12.8914 18.0143 13.3334 18.0143H16.6667C17.1087 18.0143 17.5326 18.1722 17.8452 18.4532C18.1578 18.7341 18.3334 19.1152 18.3334 19.5125V27.0036ZM26.6666 25.5054C26.6666 25.9027 26.491 26.2838 26.1785 26.5648C25.8659 26.8457 25.442 27.0036 25 27.0036H21.6667V19.5125C21.6667 18.3205 21.1399 17.1773 20.2022 16.3344C19.2645 15.4915 17.9928 15.0179 16.6667 15.0179H13.3334C12.0073 15.0179 10.7356 15.4915 9.79789 16.3344C8.86021 17.1773 8.33343 18.3205 8.33343 19.5125V27.0036H5.00012C4.5581 27.0036 4.13418 26.8457 3.82162 26.5648C3.50906 26.2838 3.33347 25.9027 3.33347 25.5054V12.3961C3.33377 12.1833 3.38446 11.9731 3.48216 11.7794C3.57987 11.5856 3.72235 11.4128 3.90013 11.2724L13.9001 3.40682C14.2042 3.16663 14.5952 3.03417 15.0001 3.03417C15.4049 3.03417 15.7959 3.16663 16.1 3.40682L26.1 11.2724C26.2778 11.4128 26.4202 11.5856 26.5179 11.7794C26.6156 11.9731 26.6663 12.1833 26.6666 12.3961V25.5054Z" fill="white"/>
</svg>
